<?xml version="1.0" standalone="no"?>
<!DOCTYPE svg PUBLIC "-//W3C//DTD SVG 20010904//EN"
 "http://www.w3.org/TR/2001/REC-SVG-20010904/DTD/svg10.dtd">
<svg version="1.0" xmlns="http://www.w3.org/2000/svg"
 width="35" height="40" viewBox="0 0 225.000000 225.000000"
 preserveAspectRatio="xMidYMid meet">

<g transform="translate(0.000000,225.000000) scale(0.100000,-0.100000)"
fill="#ffffff" stroke="none">
<path d="M985 1880 c-259 -41 -449 -207 -510 -445 -21 -81 -21 -271 0 -350 40
-150 119 -267 256 -375 l50 -39 -163 -3 -163 -3 0 -95 0 -95 268 -3 267 -2 0
99 0 99 -75 72 c-130 126 -196 254 -214 413 -20 171 16 301 110 401 142 152
388 179 565 62 130 -87 196 -260 174 -457 -18 -161 -87 -294 -214 -418 l-76
-73 0 -99 0 -99 268 2 267 3 0 95 0 95 -164 5 -164 5 42 29 c123 85 233 247
266 390 20 87 20 255 0 342 -48 208 -216 372 -440 429 -74 19 -269 27 -350 15z"/>
</g>
</svg>
